<svg fill="none" height="424" viewBox="0 0 520 424" width="520" xmlns="http://www.w3.org/2000/svg"><path d="m48.1572 393.154c-.9314-.144-1.7964-.57-2.478-1.221-.6817-.651-1.1471-1.495-1.3335-2.419-.9984-5.39 9.8331-28.832 9.8331-28.832s-5.7953-6.076-2.7585-17.493c1.2454-4.68 10.621-24.583 17.1106-31.337 4.3524-4.532 12.2199-8.939 18.7199-7.397.26.059-1.5964 1.757 11.4114-13.614 14.2998-16.9 49.3528-45.656 78.9258-59.129 31.033-14.139 83.353-25.74 129.74-17.511 61.828 10.985 101.982 46.706 127.769 74.136 10.317-.143 19.201 7.998 26 15.754 10.728 12.22 20.524 26.629 21.2 42.876.481 4.681-.717 9.381-3.38 13.26 3.081 7.42 5.708 15.02 7.865 22.758.2.773.243 1.579.124 2.369-.118.79-.395 1.548-.813 2.229-.417.681-.968 1.27-1.619 1.733s-1.389.79-2.169.962c-33.236 7.366-205.317 40.963-434.1478 2.876z" fill="#fff"/><g fill="#000"><path d="m461.149 320.12c-1.274 1.006 16.627 25.287 6.542 26.322-.149-3.397-1.036-6.721-2.6-9.74-2.889-6.008-15.34-22.12-18.315-25.412-2.628-3.201-6.201-5.489-10.207-6.536 1.731-9.776 15.34 4.625 16.413 3.12.458-.684-9.011-11.76-15.423-9.41-3.64 1.261-5.98 6.16-3.97 11.809 3.211 9.072 23.899 34.154 25.22 35.462 3.411 3.2 7.043 5.403 11.411 3.835 12.629-6.469-8.065-30.259-9.071-29.45zm-8.58 12.061c-3.9-4.984-15.514-19.136-16.097-25.454 6.604 2.179 10.78 9.703 17.558 18.619 4.68 6.346 10.514 13.093 11.513 20.753-4.631-1.721-9.329-9.459-12.961-13.918z"/><path d="m400.431 364.177c-1.37-24.7-41.397-37.807-41.896-34.026-.315 1.318 14.326 4.321 27.513 17.505 12.579 12.756 9.76 24.141 3.9 26.12 1.349-7.389-3.344-14.3-9.162-19.001-8.133-6.601-19.097-9.206-29.305-11.7-14.173-3.336-35.584-7.1-44.353 4.841-5.567-23.166 39.33-16.692 39.704-18.304.913-3.01-43.051-10.199-45.619 12.59-.42 3.764.283 7.568 2.019 10.934 1.736 3.367 4.428 6.145 7.738 7.986 8.458 5.2 18.614 3.962 27.948 5.158 23.995 2.842 32.396 12.717 46.168 13.57 10.299.496 15.707-5.905 15.345-15.673zm-46.956-.707c-22.227-6.064-36.636-.185-44.564-11.646 5.4-11.77 29.606-7.082 41.499-4.253 12.558 3.013 30.279 7.126 35.407 19.682.974 2.218 1.232 4.686.738 7.059-9.368.166-17.636-6.633-33.08-10.842z"/><path d="m292.674 271.201c-5.943-10.707-24.047-9.21-23.696-7.416.062.702 3.531.606 8.546 2.135 5.772 1.82 13.208 5.894 11.648 11.778-1.11 4.529-.546.829-10.286-3.164-13.585-5.65-34.86-3.541-41.191 6.027-2.959-5.637 1.461-10.4 7.118-13.206 4.628-2.127 11.96-4.558 5.481-4.253-23.007 1.349-22.446 23.938-6.843 26.917 5.863 1.121 12.033-.642 21.494-.639 6.921-.12 16.9 2.55 23.704-3.094 5.463-4.384 6.576-10.642 4.025-15.085zm-27.734 13.548c-12.945 0-20.28 3.198-25.618-2.02 5.187-7.48 28.86-12.467 47.211-.738-5.408 5.163-13.296 2.704-21.593 2.758z"/><path d="m70.993 333.551c-5.3846 9.971-9.1312 18.442-10.2622 18.083-1.04-.335 1.04-9.706 6.617-20.054s12.324-17.204 13.1794-16.502c.9126.762-4.147 8.502-9.5342 18.473z"/><path d="m201.76 339.24c-12.691-16.224-42.614-.658-41.239 1.5.697 1.241 19.433-6.929 31.343-2.462 6.792 3.144 6.961 6.599 4.075 10.4-.814 1.074-3.69-1.965-14.3-1.843-18.583.151-38.48 10.761-47.957 25.714-4.881-2.215-5.653-5.764-3.432-10.66 4.466-9.849 17.11-16.619 16.491-17.865-.92-2.168-25.165 9.818-22.88 24.841 1.854 8.686 11.36 11.362 21.016 9.973 10.127-1.552 68.866-20.771 56.883-39.598zm-64.756 34.24c12.683-15.392 36.322-25.538 55.984-21.781-9.688 8.437-43.862 23.525-55.984 21.781z"/><path d="m357.053 303.576c-4.064-4.212-3.144-8.395.4-9.168 5.142-.254 10.226 1.175 14.482 4.072 4.42 2.86 13.429 9.409-1.258 2.259-8.346-4.063-13.533-2.732-12.701-2.766 0 0-.018-.036.018.169-.161 4.633 25.282 17.56 21.676 8.863-1.669-3.497-.088-2.262 1.199-.764 2.878 3.344-.213 12.012-18.341 1.183-2.004-1.007-3.849-2.303-5.475-3.848z"/><path d="m163.418 293.579c-6.578.502-17.865 4.789-14.261 10.262 3.141 4.623 12.001 3.079 17.532 1.844 15.537-3.721 15.012-13.229-3.271-12.106zm11.008 6.066c-5.621 3.939-30.045 5.696-19.206-.403 10.676-6.009 25.48-3.999 19.206.403z"/><path d="m235.152 321.212c-10.086 9.123-18.14 4.42-16.773-1.23.52-2.174 3.674-5.536 2.135-1.56-.274.479-.43 1.015-.455 1.566s.081 1.1.309 1.602c.229.502.573.942 1.006 1.284.432.343.939.578 1.48.685 3.455.814 11.016-4.342 11.492-6.773.314-2.467.333-4.708-6.911-2.358-13.013 4.22-1.56-2.184 2.6-3.354 3.791-.78 6.924-.288 7.48 3.554.213 1.209.107 2.451-.307 3.606-.415 1.154-1.123 2.181-2.056 2.978z"/><path d="m92.716 372.988c-4.3056-3.442 1.0712-9.846 6.8068-12.22 4.5342-1.872 6.1282.114 5.7932.317-1.719.122-3.374.705-4.79 1.688-6.393 3.983-8.0596 9.224-3.6604 7.722 2.7152-1.131 5.1434-2.853 7.1084-5.042.614-.527 1.065-1.217 1.303-1.99.237-.773.251-1.597.039-2.378.26-.702 3.096 1.56.452 5.72s-9.2638 9.215-13.052 6.183z"/><path d="m436.21 375.201c-.521.875-1.347 1.527-2.318 1.832-.972.305-2.022.241-2.95-.179-6.149-2.319-9.643-11.091-7.935-13.057.637-.874.561.385.816 1.149 1.202 2.91 3.119 5.469 5.575 7.439 3.9 3.234 6.029 1.604 2.21-3.827-1.287-1.82-4.545-5.567-6.883-5.414-.712.045-1.097.489-1.3.372-.163-.023-.26-.905.908-1.542 4.207-2.275 14.653 7.509 11.877 13.227z"/><path d="m287.599 355.88c-2.54-6.973-1.973-11.653-1.62-11.63.988-.117 2.86 21.104 22.436 28.86 8.564 3.398 17.719 3.406 26.886 5.138 7.153 1.352 11.193 3.575 11.003 3.954-.2.489-4.355-.842-11.356-1.541-13.747-1.368-38.228.236-47.349-24.781z"/><path d="m246.002 299.845c-14.586-1.628-22.306-11.076-21.354-11.812.868-.78 6.578 6.955 21.718 8.663 11.525 1.3 23.92-1.019 24.091.26.135 1.038-13.97 4.064-24.455 2.889z"/><path d="m209.877 360.448c-9.921 11.601-30.181 20.673-30.893 18.996-.468-1.105 17.885-9.94 27.82-21.598 6.362-7.468 7.004-14.168 3.697-21.497-2.08-4.631-5.33-8.791-4.802-9.238.694-.593 19.791 15.083 4.178 33.337z"/><path d="m362.016 316.792c-8.377-4.184-13.418-11.055-12.683-11.7.736-.645 5.98 4.786 14.1 8.863s15.621 4.857 15.579 5.796c-.046 1.094-8.6 1.235-16.996-2.959z"/><path d="m486.143 372c-5.101-15.041-4.857-10.122-2.943-14.271 8.964-20.429-19.438-68.716-48.1-72.387-92.17-110.068-260.507-99.58-347.7738 16.362-17.9738-4.584-38.8622 31.2-39.4888 47.46-.0479 4.247 1.215 8.405 3.6166 11.908-1.8096 4.16-3.5213 8.363-5.135 12.608-3.0628 8.06-3.8402 15.142-2.3634 15.558 2.5636.731 8.0834-15.452 12.012-24.601 11.349 4.833 25.961-13.822 23.7822-15.278-1.0582-.707-15.041 13.874-21.4318 10.359-13-6.264 4.2458-37.875 13.0754-46.244 4.94-4.797 14.3884-9.116 17.16-4.875 4.3732 4.883-.1742 24.336 1.144 24.848 1.4248.596 5.4262-9.461 5.6498-17.893 63.7958-84.633 173.2818-112.453 265.5038-69.857 18.328 8.424 22.685 11.96 22.938 11.544.132-.205-8.45-5.504-8.661-5.626-90.054-52.723-209.664-31.637-280.1864 58.469-.4302-2.545-1.7575-4.85-3.7414-6.5 85.8678-106.686 243.4228-122.642 338.1848-18.273-1.967.199-3.873.79-5.607 1.739s-3.259 2.236-4.486 3.786c-10.042 13.158 10.537 39.533 12.035 38.459 1.503-1.011-15.246-25.966-7.725-35.136 2.801-3.57 7.907-3.9 12.348-3.053 5.725 1.332 11.061 3.981 15.582 7.738 13.335 10.61 25.823 29.073 27.747 48.719.928 9.453-4.706 14.19-11.802 13.696-7.649-.572-13.897-7.332-19.393-12.539-9.051-8.721-19.344-17.124-2.878 2.675 6.071 7.098 12.436 14.355 21.762 15.285 3.658.414 7.35-.41 10.486-2.34 1.199 3.12 2.337 6.265 3.413 9.433 7.153 20.946 10.117 12.405 5.276-1.773z"/></g><path d="m145.08 230.04c4.56-4.467 12.186-14.428 11.128-20.678-1.17-6.898-22.279-27.542-43.911-30.836-9.919-12.782-35.0016-28.478-43.241-31.775-7.3632-2.943-17.4642-4.082-23.3246-.218-11.0266 7.28-6.89 32.256-6.76 37.887.3224 15.548 12.6022 36.374 12.1654 40.807-.3328 3.398-4.5786 3.203-1.8824 15.764 1.693 8.277 3.8633 16.45 6.5 24.476 1.4508 4.277 3.4736 8.892 7.5946 10.738 6.006 2.684 17.966-.644 24.1124-3.993 2.1164-1.152 3.1772-1.316 4.94.821 3.4658 4.228 7.6306 12.579 14.9266 12.007 2.08-.164 2.6-1.282 2.499-3.333-.191-4.408-1.361-8.719-3.427-12.618 2.501-.995 4.76-2.514 6.627-4.454 2.702 2.715 11.529 10.92 15.421 11.199 3.892.278 6.57-4.27 6.175-8.125-.837-3.797-2.407-7.393-4.623-10.588-1.56-2.886-.931-2.732 5.309-11.096 4.592 6.172 6.518 9.258 9.36 10.784 1.068.646 2.315.933 3.557.819 1.243-.115 2.416-.624 3.349-1.453 3.492-3.783-1.04-11.136-7.327-21.411-1.191-1.937-1.157-2.795.832-4.724z" fill="#ffc5f6"/><path d="m67.652 205.709c-.4805 4.251.4891 8.539 2.7516 12.17s5.6851 6.39 9.7128 7.832c2.7325.992 5.6821 1.229 8.5381.687 2.8561-.543 5.5131-1.845 7.6914-3.771 2.1782-1.925 3.7971-4.402 4.6871-7.169.889-2.768 1.016-5.724.367-8.558-3.6244-17.087-30.225-19.999-33.748-1.191z" fill="#92fcff"/><path d="m96.5173 218.86c-2.5028 3.074-6.1136 5.041-10.0535 5.476s-7.8931-.696-11.0065-3.149c-6.942-5.015-6.6274-12.22-7.6908-12.16-.7306.034-1.3 8.684 5.6342 14.705 2.6125 2.363 5.8489 3.926 9.3242 4.502 3.4752.577 7.0429.142 10.2782-1.251 3.2354-1.394 6.0022-3.688 7.9709-6.609 1.969-2.921 3.057-6.346 3.135-9.868.112-11.468-10.2177-21.471-21.7695-19.627-8.3538 1.217-14.3 7.249-14.9474 12.649-.4186 2.829.0676 4.337.3432 4.331.3562.013.52-1.502 1.3962-3.866 2.4752-7.119 13.286-11.848 21.294-7.969 8.3382 3.937 12.1215 15.296 6.0918 22.836z" fill="#000"/><path d="m89.0864 236.977c22.6196-2.018 32.6976-28.392 17.0586-45.986-4.581-5.21-10.9482-8.516-17.8455-9.264-6.8973-.749-13.825 1.113-19.4177 5.218-1.7159 1.034-3.1627 2.46-4.2224 4.16.1768.185 1.6406-1.339 4.8282-3.229 23.9538-14.256 47.5124 9.404 39.9384 30.565-5.587 16.105-27.1984 21.929-41.3711 8.695-8.957-8.258-8.5409-18.842-9.3131-18.78-.52 0-.6631 11.682 7.9118 20.233 2.9146 2.931 6.428 5.198 10.2997 6.646 3.8717 1.447 8.0104 2.042 12.1331 1.742z" fill="#000"/><path d="m152.214 198.894c-10.686-11.016-24.127-18.97-38.927-23.036-12.714-13.318-27.8074-24.14-44.5014-31.907-42.12-16.793-40.6562 38.681-21.1016 79.079-2.2249 16.638.4382 33.563 7.6648 48.714.66 1.999 1.8492 3.782 3.4415 5.16 1.5922 1.377 3.5279 2.298 5.6013 2.663 8.0054 1.719 19.019-1.773 26.3796-6.014 1.56 1.948 6.539 7.889 8.2472 9.581 7.8386 7.774 14.8516.744 12.0046-7.28-3.12-8.84-5.611-3.484 3.078-8.58 4.521 4.953 9.833 12.033 16.102 10.073 1.581-.544 2.967-1.542 3.984-2.869 1.018-1.327 1.621-2.925 1.736-4.593.447-4.532-2.026-9.36-4.568-14.069-1.22-2.267-.619.39 4.001-7.02 5.229 6.355 7.6 9.451 11.344 10.242 1.586.271 3.216-.093 4.536-1.013 1.32-.921 2.224-2.324 2.518-3.907 1.021-4.222-1.615-9.128-4.16-13.52-6.006-10.296-6.259-2.8 3.611-16.335 10.015-14.329 5.569-18.593-.991-25.369zm-111.134-16.021c3.9985-1.539 7.8492-3.438 11.505-5.673 3.7284-2.361 5.72-4.267 5.4418-4.68-.4134-.645-3.7258 1.404-17.4434 6.643-1.7342-15.007.1898-33.511 15.2724-32.778 7.1552.294 15.6832 4.61 21.84 8.263-17.017 15.431-17.6176 15.792-17.3472 16.218.2704.427 3.2968-.884 7.657-3.866 4.5135-3.195 8.8352-6.653 12.9428-10.356 33.4646 21.177 52.0756 50.667 54.9536 66.82-4.16 3.141-14.113 11.342-18.096 14.948-9.3-5.504-17.384 2.576-16.487 10.782-4.716 2.2-15.1862 7.647-19.7596 10.293-16.6374-12.326-35.1754-41.594-40.4794-76.614zm20.6388 89.123c-2.7612-3.988-9.9606-21.616-10.4312-42.073 8.1952 14.56 22.7266 33.464 39.1248 39.091-7.2124 3.731-24.4946 9.045-28.6936 2.982zm44.5512.624c1.053 2.467 2.706 5.905 1.698 8.382-2.377 5.837-8.3932-2.615-14.9374-8.84 3.7388-2.42 1.0998-1.684 6.6274-1.092 7.15.718 5.122-1.968 6.612 1.55zm-6.186-5.525c-5.4295-.744-10.6469-2.603-15.324-5.46 6.1511-2.361 11.999-5.446 17.42-9.191 1.604 3.864 5.132 7.394 9.407 12.072-3.481 2.013-7.495 2.913-11.503 2.579zm31.385 2.262c-.408 3.557-3.24 5.273-7.332 1.802-3.569-3.304-6.928-6.827-10.059-10.548-4.868-5.278-13.346-12.189-6.321-18.926 1.002-.955 2.271-1.583 3.638-1.8s2.768-.012 4.016.586c5.455 3.058 16.69 23.291 16.058 28.886zm-11.071-28.995c5.848-3.638 11.23-7.975 16.027-12.917.378 4.306-.099 8.644-1.404 12.765s-3.411 7.943-6.199 11.246c-2.387-4-5.212-7.721-8.424-11.094zm28.891 7.376c2.429 5.749.084 8.195-1.989 7.834-2.496-.38-4.534-3.255-10.626-9.1 1.213-2.314 2.163-4.756 2.834-7.28 1.142-1.04 2.356-2.182 3.614-3.414 2.365 3.82 4.427 7.818 6.167 11.96zm-8.629-15.319c1.355-17.134-11.211-37.274-21.913-50.321 18.757 8.661 34.84 24.261 34.903 28.234-.648 7.204-8.237 16.502-12.99 22.087z" fill="#000"/><path d="m336.484 80.9068c7.61-8.7256 7.574-7.1968 14.09-4.4486 23.769 10.023 102.895 50.5568 103.155 50.6998 13.956 8.034 20.183 8.819 14.128 23.117-6.24 14.747-23.036 47.455-32.934 59.685-4.61 5.201-8.668 10.864-12.111 16.9-5.325 10.091-19.5 17.176-15.176 19.025 17.81 7.599 21.858 15.21 26.608 31.166.247.829.167 1.178-.694 1.674-3.089 1.789-10.4 5.445-13.421 3.518-2.501-1.599-3.214-7.249-8.146-14.105-2.872-3.719-6.688-6.601-11.051-8.344-4.363-1.744-9.114-2.286-13.758-1.57-8.58 1.914-4.548 1.893-88.4 48.012-23.288 12.807-29.12 10.187-35.555 23.2-5.109 10.327-5.27 22.214-12.706 24.941-3.014 1.105-9.813.575-12.48-2.171-4.553-4.68-.219-21.164 1.669-27.427 2.095-6.95.504-4.997 7.171-11.014 5.168-4.664-1.417-8.177-80.582-63.869-1.167-.62-2.498-.864-3.809-.696-9.449 20.69 3.577 35.053-15.715 33.176-3.712-.359-4.726-1.126-5.98-3.9-9.084-20.241.078-45.581 22.88-57.72 11.44-6.09-14.645 8.655 97.274-49.416 29.588-15.335 38.192-47.609 75.543-90.4332z" fill="#e2e2e2"/><path d="m465.876 131.856c-18.335-11.978-41.54-21.2-61.475-32.5518-15.381-9.0272-32.398-15.8027-48.581-24.4009-16.135-8.58-16.229-4.0534-60.499 57.7197-23.426 32.794-28.626 31.525-70.46 53.589-60.765 31.608-72.462 34.965-76.661 43.828-14.771 16.778-15.954 43.085-9.36 52.403 2.532 3.427 6.172 4.061 10.426 3.64 17.033-2.025 7.329-10.153 14.357-33.953 18.881 13.161-4.433-5.46 81.536 59.28-8.897 6.692-11.528 19.351-12.495 30.42-.372 6.448 0 12.716 8.164 15.454 6.884 2.402 14.526-.494 16.928-6.084 2.062-4.797 3.939-20.28 14.849-30.144 6.058-1.615 11.904-3.936 17.42-6.916 4.295-2.158 65.065-35.529 95.082-53.488 3.236-.585 6.556-.51 9.762.22s6.232 2.101 8.895 4.029c13.734 10.062 7.8 27.685 27.129 19.5 4.838-2.046 7.111-4.16 5.72-9.594-3.677-13.744-12.402-25.74-26.122-30.519 22.791-19.677 58.981-88.184 62.938-100.701 2.012-6.471-3.677-9.045-7.553-11.731zm-311.264 140.85c-.427 6.37.153 6.518-5.98 7.098-2.013.187-3.516.185-4.68-1.266-3.708-5.239-3.9-24.989 4.659-39.64 3.269 3.985 7.049 7.522 11.242 10.52-3.025 7.419-4.796 15.289-5.241 23.288zm102.086 62.993c-3.05 7.262-3.884 11.7-4.514 12.945-1.658 3.874-9.776 4.42-12.513.52-2.002-2.324-1.524-26.418 9.258-35.004 4.357 3.201 9.306 5.505 14.56 6.779 5.003.998-.483-.419-6.791 14.76zm166.442-75.301c3.441 5.197 5.957 10.951 7.436 17.006-1.826.988-3.741 1.8-5.72 2.423-7.423 1.68-2.819-9.653-17.849-19.76-14.511-9.289-19.971 1.251-.632-12.521 6.765 2.479 12.613 6.963 16.765 12.852zm45.211-118.329c-2.473 8.447-37.911 80.896-62.14 100.03-10.4 8.372-107.364 61.336-118.745 66.963-11.564 5.707-16.77 7.379-22.755 6.138-8.58-1.778-6.227-1.924-77.781-55.057-11.474-8.299-34.965-21.507-33.156-26.884 2.171-6.24 20.319-13.468 26.216-16.427 108.379-56.42 93.691-41.746 137.28-104.78 4.311-6.206 24.302-35.3443 30.191-34.2861 2.938.52 103.652 51.5401 110.43 55.4971 10.691 6.443 11.074 6.768 10.46 8.806z" fill="#000"/><path d="m440.869 111.761c.163-11.246-1.977-22.4066-6.288-32.7948-4.311-10.3883-10.701-19.7847-18.779-27.6112-27.721-27.5262-71.37-9.8306-71.37-9.8306l-4.131 4.914s-2.556-4.914-13.369-2.5532c-10.814 2.3608-27.467 27.6276-29.445 35.4016-2.754 10.8134 5.065 21.0262 5.065 21.0262s-.871-.3276-5.154 7.522c-4.282 7.849 2.767 30.602 2.767 30.602s-12.48-19.36-12.67-33.636c-.055-4.254-.372-18.4604-3.676-21.115-.747-1.2818-4.881-4.082-2.944-13.2054 1.805-8.84 10.055-9.113 13.349-13.7228 1.162-1.9069 1.592-4.1711 1.209-6.3713-.382-2.2001-1.551-4.1863-3.289-5.5887-12.22-9.2872-22.683 8.84-23.234 8.047-3.39-5.1685-7.53-9.8039-12.285-13.754-11.284-8.489-21.075-6.123-23.48-1.7238-1.805 3.2084.717 6.4818 2.657 9.646-10.811-1.3936-22.451 1.3364-18.242 9.62 1.316 2.6 5.013 2.9718 13.622 6.9524-7.722 1.7888-15.86 2.9874-14.917 8.7854 1.501 8.0054 12.569 4.2094 22.602 10.2908 1.879.8901 3.42 2.3641 4.392 4.202.973 1.8378 1.324 3.9409 1.003 5.9952-1.084 7.1762-3.533 10.6132 2.897 18.6422 5.121 6.235 8.67 13.609 10.348 21.502 1.071 7.493 12.045 25.961 12.045 25.961l-16.863 12.402-17.42-4.566s3.801-20.243-1.545-30.386c-5.345-10.143-9.708-15.928-23.779-18s-20.506-1.092-20.397 9.49 1.963 49.522 2.181 56.94c.219 7.418 11.126 9.927 15.488 10.14 18.952.949-5.314-3.265-5.86 14.222-.398 12.758-1.95 37.848-1.95 37.848-7.476.211-14.7 2.743-20.673 7.244-9.945 7.522-11.219 20.4-6.24 25.756s46.8 5.98 46.8 5.98 15.044 1.274 19.253-4.847c4.21-6.12 4.077-25.243 4.077-25.243s16.575 17.084 29.708 19.89c13.132 2.805 36.462-8.414 47.299-14.916 10.837-6.503 54.821-44.622 54.821-44.622s27.412 2.166 40.414-4.336c13.003-6.503 21.037-19.76 20.91-30.852-.076-6.678-.759-13.336-2.041-19.89 16.481-18.985 13.546-44.798 7.134-49.457z" fill="#fff"/><path d="m327.036 60.5199c-5.356 4.1478-10.415 8.6655-15.14 13.52-4.51 5.404-7.316 12.0241-8.064 19.023-.747 6.9991.598 14.0621 3.865 20.2971 1.329 2.431 1.927 5.556 3.494 7.841 9.555 13.918 21.266 27.066 37.96 29.64 12.792 1.969 28.112-2.059 36.263-12.113 2.529-3.12 4.16-6.162 6.801-9.191 10.057-11.549 12.251-29.26-2.969-51.0563-4.778-6.1144-10.325-11.5874-16.502-16.2838-12.74-10.8706-33.717-11.7-37.214-10.3688-4.29 1.6016-5 5.7486-8.494 8.6918z" fill="#000"/><path d="m254.306 248.76c15.543 22.181 36.66 13.187 37.128 14.786 1.071 1.838-24.482 11.765-41.054-12.051-15.704-22.57-1.869-45.021-.135-43.469 1.341.777-10.915 19.378 4.061 40.734z" fill="#000"/><path d="m443.537 113.724c3.445-6.747-3.253-32.911-8.11-41.5482-16.307-28.9926-41.787-40.2558-74.414-37.3958-12.408 2.08-16.926 2.834-22.064 8.1276-13.718-6.4376-26.198 5.174-35.292 17.3654-9.717 13-14.68 27.3546-4.761 40.279-6.261 6.022-6.001 13.798-4.202 22.451-8.632-25.199-2.449-29.2368-6.24-38.0066-1.82-4.29-8.255-13.598-.439-19.4194 2.98-2.2516 8.278-4.0664 10.163-9.2768 4.322-12.584-14.102-26.5902-28.199-6.6846-17.693-31.72-45.76-21.5098-41.535-7.0408-15.059-1.8928-22.641 14.3442-10.242 20.4932-1.622.5092-3.076 1.4509-4.203 2.7239-1.128 1.273-1.888 2.8292-2.198 4.5015-.946 14.8434 18.853 12.766 24.7 16.2812 7.946 4.6202-1.133 10.5768 2.41 18.6704 2.762 6.617 7.925 5.686 13.653 20.86 3.879 10.33 5.125 18.158 14.074 31.754-5.535 2.283-10.627 5.52-15.044 9.563-4.982-1.618-10.055-2.942-15.192-3.968 4.756-16.838.385-41.08-18.951-46.93-7.062-2.018-23.699-4.781-28.683.78-3.38 3.775-2.834 4.42-2.41 31.242.293 18.473 1.097 26.501 1.879 36.66 1.339 8.255 7.356 11.484 15.686 12.48-14.708 14.536-7.246 48.776-9.823 48.854-18.61.686-29.567 14.944-27.726 28.49 1.466 14.233 24.838 12.558 37.7 13.744 36.01 2.943 42.203-3 41.738-25.641-.05-2.327-.905-.975 6.718 5.278 11.854 9.62 25.787 14.157 40.243 8.985 20.28-7.254 52.06-26.73 83.171-58.008 32.708 2.953 61.815-6.841 62.707-38.74-.027-6.724-.713-13.43-2.049-20.02 10.042-13.546 17.275-34.372 6.935-46.904zm-105.537-59.5324c7.02-3.0888 33.337 4.7242 50.786 29.8558 6.76 9.789 10.941 18.9796 6.804 30.0686-5.629 15.619-18.608 32.24-35.064 34.557-19.328 3.12-47.925-16.552-54.277-48.321 1.3-4.2718.21-16.1044 16.406-32.1438 7.545-7.3944 11.039-8.8998 15.345-14.0166zm-38.626 29.7284c1.49-11.6324 20.431-40.937 36.294-37.18-9.948 12.5398-30.883 22.3444-34.697 48.2352-1.555-3.4634-2.108-7.2933-1.597-11.0552zm-80.454-31.7486c1.505-2.5818 6.5-4.1054 9.503-3.6816 6.848 1.1778 4.696 1.7238 9.76 4.5448 5.229 2.86 9.662 5.46 13.336 7.9118-9.761 8.1146-2.275 8.372-11.097 4.8126-2.665-1.014-.213-.3302-16.211-7.1084-1.812-.5074-3.482-1.4286-4.878-2.691-.767-1.4352-1.154-2.4596-.413-3.7882zm27.776 53.9106c-5.083-5.613-.622-7.7814-.505-14.3646 9.675 1.9032 17.696-1.7576 17.379-2.7066-.356-1.1388-8.185 1.3416-17.94-1.209-2.728-8.4708-15.462-10.53-23.624-11.9002-7.685-3.4606-3.884-8.9466 6.5-8.8634 14.248 5.3872 15.033 4.3342 14.61 5.5146-.897 2.5064-.975 4.1886-.52 4.3576 1.008.3562 3.679-5.2234 8.694-10.66 4.94-5.5094 10.236-8.6944 9.784-9.6668-.208-.442-1.877-.208-4.288.9256-3.299 1.5366 1.714 1.3-15.558-9.464-13.78-9.048-3.931-15.4284 6.531-11.8222 8.203 2.8158 14.667 10.5898 19.62 17.68-3.7 7.3268-3.9 13.1924-3.12 13.1742.652.0494 1.38-5.9332 6.812-13.429 9.752-13.286 19.042-10.66 21.913-4.8022 4.391 8.7334-7.34 9.36-11.817 16.2604-1.257 1.8601-2.08 3.979-2.408 6.2-.327 2.221-.152 4.4872.515 6.631-.678 1.5544-1.73 2.9167-3.063 3.965-4.241 3.2032-12.36 5.8552-12.022 6.8978.299.9438 12.563-1.391 16.733-6.6274 2.301 4.8646 3.609 4.134 3.344 12.4618-7.366 9.9034-26.83 15.4184-37.57 11.4474zm19.921 4.288c6.738-1.562 12.87-5.063 17.641-10.07.175 5.728 1.165 11.402 2.941 16.851-9.156 4.38-18.794 7.669-28.717 9.799-7.743-25.043-13.541-10.839 8.135-16.58zm-7.54 18.53c10.158-1.22 19.96-4.506 28.8-9.656.728 2.181 1.649 4.68 2.577 6.929-9.325 4.484-19.144 7.857-29.255 10.051-.697-2.319-1.371-4.771-2.13-7.324zm-20.116 143.359c-1.56 14.854-22.49 10.197-48.36 9.591-5.905-.203-16.973-1.081-18.543-6.783 29.611 3.258 57.239 2.353 57.228 1.165-.01-1.189-23.714-1.165-57.533-5.044.104-2.371.582-4.711 1.417-6.932 5.229-12.548 22.035-16.877 34.19-12.454 6.898 2.512 9.548 6.224 10.021 5.746.52-.437-4.769-8.195-16.092-10.421.065-11.559-1.469-33.202 5.447-42.515 3.575-4.813 10.026-7.639 15.582-5.317 15.873 6.64 17.831 62.34 16.635 72.964zm109.894-57.51c-.083 1.246 19.716 3.841 21.081 4.004-21.598 18.606-52.848 42.64-79.324 52.492-16.9 6.297-32.695-3.086-45.06-16.201-3.64-85.709-34.112-56.087-48.36-66.18-.714-.473-1.309-1.103-1.741-1.842-.431-.74-.687-1.568-.747-2.422-.78-10.096-1.56-17.737-1.852-36.184-.413-26.169-.6-25.839.931-26.858 1.639-.749 3.42-1.133 5.221-1.126 1.547 20.665.811 61.295 2.587 61.253 1.019-.023 2.782-39.964 1.251-61.196 4.338.306 8.645.964 12.877 1.968 18.658 5.257 21.487 33.376 13.588 50.7-2.15 4.509-3.806 6.843-3.419 7.174.611.52 5.294-4.42 8.151-10.491 18.065 3.452 37.44 10.831 49.613 24.915 10.715 12.246 27.82 51.74 30.964 49.902.808-.463-1.649-6.619-5.687-16.575-.863-2.129-1.237-.941 7.353 4.16 11.367 6.664 11.656 5.026 1.935-2.774-15.34-12.792-13.26-11.281-16.945-18.808-9.193-18.681-18.545-31.076-42.733-40.737 3.987-2.181 7.645-4.916 10.865-8.123 1.901 2.567 7.99 9.821 8.749 9.134.931-.811-8.265-10.535-15.478-30.087-1.721-4.87-1.851-.655 13.822-5.98 21.887-7.41 9.532-12.381 22.454 7.444 6.858 10.444 20.519 26.816 35.965 34.32 7.462 3.564 12.038 4.212 12.116 3.9.52-1.56-19.315-5.941-34.915-29.06-5.795-8.552-10.226-20.02-8.876-17.797 6.152 10.889 15.342 19.751 26.447 25.506 16.198 8.32 38.16 10.155 53.323 1.263 5.451-3.36 10.246-7.682 14.152-12.755-1.919 7.956-2.142 16.679 2.881 23.056-10.242 5.692-21.525 9.263-33.176 10.499-10.47.944-16.999-.829-17.228.073-.416.915 15.93 8.421 41.15-.494-.178 1.947-.75 3.837-1.679 5.556-1.989 3.768-36.273 3.38-36.333 5.247-.067 2.252 24.945 2.535 31.265 1.56 2.279 4.678 5.653 8.736 9.837 11.83 4.183 3.093 9.053 5.131 14.193 5.938-22.974 7.837-59.007.396-59.226 3.796zm63.541-5.509c-5.337-.588-10.472-2.373-15.022-5.224s-8.397-6.693-11.253-11.239c2.069-.37 4.015-1.246 5.665-2.548 8.573 7.958 19.938 12.215 31.629 11.848-3.26 2.973-6.985 5.393-11.026 7.163zm13-9.204c-11.721-.157-23.066-4.157-32.294-11.385.818-1.425 1.376-2.984 1.646-4.605 1.422-7.667-2.416-2.623 9.796-9.454 8.864 4.868 19.654-.223 27.139-8.086 1.42 12.197 1.69 24.44-6.3 33.53zm18.554-70.496c-1.352 15.08-17.475 41.03-32.477 40.401-17.864-.746-8.551-41.577 15.218-57.98 3.411-2.197 5.84-2.283 5.822-2.818.182-.793-6.849-2.626-18.785 9.006 5.839-19.1802-1.88-31.5952-2.387-31.3586-1.984.7488 13.338 18.9176-14.248 54.7066-10.938 14.121-21.138 20.982-39.819 20.254-38.067-1.277-59.618-38.301-57.07-52.66.609-1.7 1.664-3.204 3.055-4.355 8.663 39.325 57.314 73.119 88.795 28.16 14.422-21.138 13.658-33.9246 1.022-51.8698-14.984-21.0418-37.911-31.9098-51.257-31.5874 1.378-1.8129 3.065-3.3675 4.985-4.5916 5.073-.8835 10.292-.3286 15.067 1.6016 30.817 10.9564 48.516 39.9256 49.14 39.6292 2.644-.832-16.05-32.7444-47.619-44.0024-2.749-.9568-2.694-.6734-1.542-.8684 36.358-3.1694 61.102 13.5928 71.57 42.6556 2.098 6.2764 5.062 20.8152 4.581 25.7032 0 .188-2.712-.738-2.847-.119-.273.876 10.338 3.952 8.783 20.093z" fill="#000"/><path d="m183.851 64.6409c-3.403 16.6062-3.398 16.3124-3.343 16.575.52 2.6 8.489-7.3268 17.518-8.32-3.821 4.7718-6.786 10.1706-8.762 15.9562l12.22-2.3764c3.471-.676 6.675.338 5.562 1.6354-5.867 4.4267-11.427 9.2469-16.64 14.4269-21.622 21.175-20.8 24.934-24.243 29.721-1.758 2.031-3.401 4.158-4.921 6.373-2.226 3.965-2.879 10.189-8.042 8.195-4.753-1.836-14.251-3.331-14.591-9.779-.502-9.407 14.625-47.9281 45.242-72.4071z" fill="#e2e2e2"/><path d="m127.197 138.642c-3.091-6.778 11.867-1.422 13.203-1.409 4.16.023 5.213-5.005 12.098-8.148 3.689-1.685 3.063 12.097 4.438 14.073.478.583 1.077 1.055 1.755 1.384 3.006 1.748 5.869 3.734 8.559 5.938 1.641 1.344 1.144 2.473-.697 3.445-7.482 3.949-10.514 4.339-11.135 5.047-.344.392-.177.088-3.62 13.236-.902 3.45-7.108-4.56-9.669-7.467-.449-.703-1.113-1.243-1.892-1.541s-1.633-.339-2.437-.115c-1.695.164-11.474 1.126-12.555-.193-1.872-2.277 6.526-11.122 6.661-13.556.14-2.337-4.709-8.476-4.709-10.694z" fill="#fdfe1f"/><path d="m207.964 87.1934c.501-1.4326-10.564-3.5646-18.063.8164.182-.26 10.78-16.588 10.083-17.16-.572-1.326-13.408 4.6332-18.884 10.5456.372-1.0946 4.68-17.16 3.406-17.5604-.358-.4758-28.6 16.3956-44.148 59.173-1.483 3.807-2.53 7.77-3.12 11.812-6.06-1.365-9.544-3.044-11.7.325-1.71 2.673-.345 4.056 4.501 14.56-5.884 9.909-7.519 11.331-5.879 14.222 1.911 3.357 4.779 2.124 15.671.837l7.54 8.58c.54.612 1.24 1.06 2.021 1.295s1.612.248 2.4.036 1.501-.64 2.059-1.235.938-1.334 1.099-2.134l2.225-11.206 10.496-4.519c.75-.323 1.394-.849 1.86-1.519.467-.671.736-1.458.778-2.273s-.144-1.626-.539-2.341c-.394-.714-.981-1.304-1.693-1.703l-7.657-4.285c21.783-38.142 48.823-54.756 47.544-56.2666zm-41.746 64.9846c-12.919 5.561-12.256 5.143-12.353 5.637-2.67 13.6-2.415 13.312-3.198 13.312-.907 0-8.73-10.359-9.677-10.234-11.336 1.482-12.74 1.539-13.015 1.539-1.68 0-.227-1.594 6.076-12.22.26-.437.468.325-5.421-12.446-.054-.113-.074-.24-.059-.364.015-.125.064-.242.143-.34s.183-.171.302-.212c.118-.041.246-.048.368-.02 9.739 2.166 12.586 2.881 12.852 2.881.382 0-.281.496 10.015-9.022.092-.085.206-.143.329-.166.123-.024.25-.013.367.032s.218.122.294.222.122.219.133.343c1.323 14.04 1.105 13.245 1.544 13.489 9.818 5.502 13.146 6.776 11.3 7.569zm-8.182-10.886-.973-10.507c-.098-1.087-.6-2.097-1.408-2.831-.807-.735-1.861-1.139-2.952-1.134-2.389 0-2.771.983-11.357 8.923l-1.081-.244c.666-3.884 1.757-7.683 3.255-11.328 10.764-28.1922 21.58-40.4772 39.616-58.6148-3.453 6.8328-4.16 17.2276-2.894 17.2978.45.5798 4.855-2.1164 10.247-5.4028 8.895-5.4756 5.85-4.5552 2.041 1.443-3.305 5.1558-4.524 10.0776-3.848 10.3012.278.7046 4.482-.4628 9.672-1.0816 3.718-.4966 6.955-.39 8.559-.5512-11.614 6.11-34.777 27.2634-48.877 53.7294z" fill="#000"/></svg>